<mxfile host="app.diagrams.net" modified="2023-04-26T02:58:54.813Z" agent="Mozilla/5.0 (Windows NT 10.0; Win64; x64; rv:109.0) Gecko/20100101 Firefox/112.0" etag="2lokMcLw1ovjwbe_XL3z" version="21.2.2" type="github">
  <diagram name="Page-1" id="Ea_HetIdOPtKcFdq7EXJ">
    <mxGraphModel dx="1434" dy="754" grid="1" gridSize="10" guides="1" tooltips="1" connect="1" arrows="1" fold="1" page="1" pageScale="1" pageWidth="850" pageHeight="1100" math="0" shadow="0">
      <root>
        <mxCell id="0" />
        <mxCell id="1" parent="0" />
        <mxCell id="3uKLm9dcjwHuMckrt-B5-1" value="dwg" style="rounded=1;whiteSpace=wrap;html=1;" vertex="1" parent="1">
          <mxGeometry x="80" y="280" width="120" height="60" as="geometry" />
        </mxCell>
      </root>
    </mxGraphModel>
  </diagram>
</mxfile>
